<svg width="18" height="13" viewBox="0 0 18 13" fill="none" xmlns="http://www.w3.org/2000/svg">
<path d="M4.4228 12.224C2.97213 12.224 1.88946 11.7493 1.1748 10.8C0.470795 9.85067 0.118795 8.59733 0.118795 7.04V5.728C0.118795 4.17067 0.470795 2.92267 1.1748 1.984C1.88946 1.04533 2.97213 0.575999 4.4228 0.575999C5.88413 0.575999 6.9668 1.05067 7.6708 2C8.38546 2.93867 8.7428 4.18133 8.7428 5.728V7.04C8.7428 8.59733 8.38546 9.85067 7.6708 10.8C6.95613 11.7493 5.87346 12.224 4.4228 12.224ZM4.4228 10.304C5.0628 10.304 5.5268 10.0373 5.8148 9.504C6.11346 8.96 6.2628 8.16533 6.2628 7.12V5.632C6.2628 4.59733 6.11346 3.81867 5.8148 3.296C5.5268 2.76267 5.0628 2.496 4.4228 2.496C3.79346 2.496 3.32946 2.76267 3.0308 3.296C2.7428 3.81867 2.5988 4.59733 2.5988 5.632V7.12C2.5988 8.16533 2.7428 8.96 3.0308 9.504C3.32946 10.0373 3.79346 10.304 4.4228 10.304ZM17.0346 10.064V12H10.3466V10.064H12.7466V3.44H12.6826L10.3306 5.584V2.944L12.6986 0.799999H14.8746V10.064H17.0346Z" fill="white"/>
</svg>
