<svg width="18" height="13" viewBox="0 0 18 13" fill="none" xmlns="http://www.w3.org/2000/svg">
<path d="M4.36811 12.224C2.91744 12.224 1.83477 11.7493 1.12011 10.8C0.416108 9.85067 0.0641076 8.59733 0.0641076 7.04V5.728C0.0641076 4.17067 0.416108 2.92267 1.12011 1.984C1.83477 1.04533 2.91744 0.575999 4.36811 0.575999C5.82944 0.575999 6.91211 1.05067 7.61611 2C8.33077 2.93867 8.68811 4.18133 8.68811 5.728V7.04C8.68811 8.59733 8.33077 9.85067 7.61611 10.8C6.90144 11.7493 5.81877 12.224 4.36811 12.224ZM4.36811 10.304C5.00811 10.304 5.47211 10.0373 5.76011 9.504C6.05877 8.96 6.20811 8.16533 6.20811 7.12V5.632C6.20811 4.59733 6.05877 3.81867 5.76011 3.296C5.47211 2.76267 5.00811 2.496 4.36811 2.496C3.73877 2.496 3.27477 2.76267 2.97611 3.296C2.68811 3.81867 2.54411 4.59733 2.54411 5.632V7.12C2.54411 8.16533 2.68811 8.96 2.97611 9.504C3.27477 10.0373 3.73877 10.304 4.36811 10.304ZM10.0199 10.112L11.7959 8.56L12.5479 7.936C13.2519 7.36 13.8012 6.89067 14.1959 6.528C14.5906 6.16533 14.9159 5.78133 15.1719 5.376C15.4279 4.96 15.5559 4.53867 15.5559 4.112C15.5559 3.65333 15.4172 3.264 15.1399 2.944C14.8626 2.624 14.4412 2.464 13.8759 2.464C13.1826 2.464 12.7186 2.66667 12.4839 3.072C12.2599 3.46667 12.1479 3.888 12.1479 4.336V4.528H9.97189C9.97189 3.728 10.1266 3.02933 10.4359 2.432C10.7559 1.83467 11.2039 1.376 11.7799 1.056C12.3666 0.725333 13.0546 0.559999 13.8439 0.559999C14.6439 0.559999 15.3266 0.714666 15.8919 1.024C16.4679 1.32267 16.8999 1.73333 17.1879 2.256C17.4866 2.77867 17.6359 3.35467 17.6359 3.984C17.6359 4.61333 17.5026 5.18933 17.2359 5.712C16.9692 6.224 16.6492 6.672 16.2759 7.056C15.9026 7.42933 15.4226 7.86133 14.8359 8.352L14.5799 8.576L12.9319 9.984V10.064H17.7319V12H10.0359L10.0199 10.112Z" fill="white"/>
</svg>
