<svg width="18" height="13" viewBox="0 0 18 13" fill="none" xmlns="http://www.w3.org/2000/svg">
<path d="M4.35248 12.224C2.90182 12.224 1.81915 11.7493 1.10448 10.8C0.400483 9.85067 0.0484826 8.59733 0.0484826 7.04V5.728C0.0484826 4.17067 0.400483 2.92267 1.10448 1.984C1.81915 1.04533 2.90182 0.575999 4.35248 0.575999C5.81382 0.575999 6.89648 1.05067 7.60048 2C8.31515 2.93867 8.67248 4.18133 8.67248 5.728V7.04C8.67248 8.59733 8.31515 9.85067 7.60048 10.8C6.88582 11.7493 5.80315 12.224 4.35248 12.224ZM4.35248 10.304C4.99248 10.304 5.45648 10.0373 5.74448 9.504C6.04315 8.96 6.19248 8.16533 6.19248 7.12V5.632C6.19248 4.59733 6.04315 3.81867 5.74448 3.296C5.45648 2.76267 4.99248 2.496 4.35248 2.496C3.72315 2.496 3.25915 2.76267 2.96048 3.296C2.67248 3.81867 2.52848 4.59733 2.52848 5.632V7.12C2.52848 8.16533 2.67248 8.96 2.96048 9.504C3.25915 10.0373 3.72315 10.304 4.35248 10.304ZM13.8603 12.144C12.5803 12.144 11.5936 11.8293 10.9003 11.2C10.2069 10.5707 9.79627 9.77067 9.66827 8.8H11.9083C12.0256 9.23733 12.2496 9.57867 12.5803 9.824C12.9109 10.0693 13.3323 10.192 13.8443 10.192C14.4309 10.192 14.8843 10.0427 15.2043 9.744C15.5349 9.43467 15.7003 9.04533 15.7003 8.576C15.7003 8.07467 15.5243 7.68533 15.1723 7.408C14.8309 7.12 14.3936 6.976 13.8603 6.976H12.8523V5.296H13.8763C14.3563 5.296 14.7509 5.17333 15.0603 4.928C15.3696 4.672 15.5243 4.31467 15.5243 3.856C15.5243 3.39733 15.3643 3.02933 15.0443 2.752C14.7349 2.47467 14.3243 2.336 13.8123 2.336C13.3216 2.336 12.9269 2.45867 12.6283 2.704C12.3403 2.94933 12.1536 3.28533 12.0683 3.712H9.89227C10.0309 2.80533 10.4149 2.048 11.0443 1.44C11.6736 0.821333 12.6016 0.511999 13.8283 0.511999C14.7243 0.511999 15.4656 0.677333 16.0523 1.008C16.6389 1.328 17.0603 1.73867 17.3163 2.24C17.5829 2.74133 17.7163 3.25333 17.7163 3.776C17.7163 4.30933 17.5883 4.752 17.3323 5.104C17.0869 5.456 16.8203 5.71733 16.5323 5.888C16.2549 6.05867 16.0789 6.144 16.0043 6.144V6.24C16.2283 6.31467 16.4576 6.416 16.6923 6.544C16.9269 6.66133 17.1776 6.90667 17.4443 7.28C17.7109 7.65333 17.8443 8.15467 17.8443 8.784C17.8443 9.38133 17.7003 9.936 17.4123 10.448C17.1243 10.96 16.6816 11.3707 16.0843 11.68C15.4869 11.9893 14.7456 12.144 13.8603 12.144Z" fill="white"/>
</svg>

